<?xml version='1.0' encoding='utf-8'?>
<svg xmlns="http://www.w3.org/2000/svg" enable-background="new 0 0 500 500" version="1.1" viewBox="0 0 500 500"> <style type="text/css"> .st0{fill:#FFD3C5;} .st1{fill:#FFFFFF;} .st2{fill:#FF8E66;} .st3{fill:#C65C3C;} </style> <rect class="st0" width="500" height="500"/> <path class="st1" d="m230.4 447 1.8-69.3-82.2 12.6-1.4-9.4 1.2 9.5-15.6 2.1 4.8-15 7.2-22.6c1.2-3.9-3.6-9.6-7.1-12.5-20.1-16.8-81.7-66.4-82.3-66.9l-12.9-10.5 32-14.1c0.3-0.1 0.5-0.2 0.6-0.3 0.1-0.2 0.1-0.7 0-1.6l-20.4-72.2 16.1 3.4-2 9.8 2-9.8 51.1 10.7c0.3-0.6 0.6-1.5 0.9-2.8l9.4-38 12.6 14.5-6.3 5.5h0.1l6.3-5.4 37.4 43.2c0.1 0.1 0.2 0.2 0.3 0.4-0.2-1.6-0.5-3.6-0.9-5.8l-16.1-86.7-4.1-20.1 45.6 22.8c1.1-1.1 2.9-3.3 5.2-7.7l36.3-69.3 36.4 69.4c2.3 4.4 4.1 6.6 5.2 7.7l45.3-22.7-3.8 19.9-16.3 86.5c-0.4 2.3-0.7 4.2-0.9 5.8l0.4-0.4 49.9-57.6 4.8 18.4-9.3 2.5 9.3-2.3 4.8 19.3c0.3 1.3 0.6 2.2 0.9 2.8l67.5-14.1-4.7 16-16 56.3c-0.1 0.8 0 1.4 0 1.6 0.1 0.1 0.2 0.2 0.5 0.3l16.9 7.5-3.9 8.9 4.1-8.9 14.7 6.8-12.6 10.1c-0.6 0.5-62.3 50-82.3 66.8-3.6 3-8.4 8.7-7.2 12.6l12.2 38-98.2-15 1.8 69.3h-39.1z"/> <path class="st2" d="m420.1 260c-6.7-3-7-9-6.3-13.1l16.1-56.9-54.1 11.3c-1.9 0.2-7.1-0.2-9.7-10.8l-4.8-19.4-37.5 43.4s-24.3 26.5-16.7-14l16.3-86.6-30.1 15.1c-1.7 0.7-7.7 1.5-15.5-13.5l-27.8-52.5-27.5 52.5c-7.9 15-13.8 14.1-15.5 13.5l-30.1-15.1 16.3 86.6c7.6 40.5-16.7 14-16.7 14l-37.5-43.4-4.8 19.4c-2.6 10.7-7.8 11.1-9.7 10.8l-54.3-11.3 16.1 56.9c0.7 4.1 0.4 10.2-6.3 13.1l-17 7.5s62.1 49.9 82.5 67c4 3.3 13.6 12.9 10.3 23.3l-7.2 22.6 85-13c4.4-0.4 28.8-0.4 33.1 0l85 13-7.2-22.6c-3.3-10.4 6.3-20 10.3-23.3 20.3-17 82.4-67 82.4-67l-17.1-7.5z"/> <path class="st3" d="m404.3 272c-11 0.9-22 1.4-33 1.9-18.2 0.8-36.4 1.2-54.5 1.4 7.9-5.9 15.8-11.7 23.7-17.5l45.3-33.1 22.5-16.8c7.4-5.7 15-11.2 21.6-17.9-6.9 6.3-14.8 11.3-22.5 16.7l-23.4 15.5-45 29.1c3-12.1 5.9-24.3 9.1-36.4l6-22.1c2.1-7.3 4.1-14.7 7.1-21.7-3.4 6.8-5.9 14.1-8.6 21.2l-7.5 21.7c-4.7 14-9.2 28.1-13.7 42.2-13.9 9.1-27.7 18.2-41.4 27.6-7.7 5.3-15.4 10.7-23 16.4-3.7 2.8-7.4 5.7-11.1 8.7l-2.2-86.4c8.5-19.3 18.9-37.7 30.4-55.5 12-18.4 25-36.1 39-53.1-14.8 16.2-28.7 33.4-41.6 51.3-10.2 14.3-19.8 29.1-28.1 44.6l-3.4-132.5-3.4 132.5c-8.4-15.5-17.9-30.4-28.1-44.6-12.9-17.9-26.8-35.1-41.6-51.3 14 16.9 27.1 34.7 39 53.1 11.5 17.8 21.9 36.2 30.4 55.5l-2.2 86.4c-3.6-3-7.3-5.9-11.1-8.7-7.6-5.7-15.3-11.1-23-16.4-13.7-9.4-27.5-18.5-41.4-27.6-4.4-14.1-9-28.2-13.7-42.2l-7.5-21.7c-2.6-7.2-5.1-14.4-8.6-21.2 2.9 7 4.9 14.4 7.1 21.7l6 22.1c3.2 12.1 6.1 24.2 9.1 36.4l-44.9-29.2-23.4-15.5c-7.7-5.3-15.6-10.4-22.5-16.7 6.6 6.7 14.2 12.2 21.6 17.9l22.5 16.8 45.3 33.1c7.9 5.8 15.8 11.7 23.7 17.5-18.2-0.2-36.4-0.6-54.5-1.4-11-0.5-22-1-33-1.9-11-1-22-1.7-32.7-4.5 10.6 3.3 21.6 4.6 32.6 6.1 11 1.4 22 2.5 33 3.5 21 1.9 41.9 3.3 63 4.5 4.3 3.3 8.7 6.5 12.9 9.8 7 5.4 13.9 10.9 20.6 16.5-12 11.7-23.4 23.7-35.1 35.5-6.6 6.6-13.2 13.1-20 19.4s-13.8 12.5-21.5 17.7c8-4.8 15.3-10.6 22.5-16.5 7.2-6 14.2-12.1 21.1-18.3 12.6-11.2 24.9-22.9 37.5-33.8 2.3 2 4.7 4 6.9 6.1 2.6 2.5 5.2 5 7.1 7.5l-3.1 111.6h18.7l-2.9-111.8c1.9-2.5 4.5-5 7.1-7.5 2.2-2.1 4.6-4.1 6.9-6.1 12.6 11 24.9 22.6 37.5 33.8 6.9 6.2 13.9 12.4 21.1 18.3s14.5 11.8 22.5 16.5c-7.7-5.2-14.6-11.4-21.5-17.7-6.8-6.3-13.4-12.8-20-19.4-11.8-11.7-23.1-23.8-35.1-35.5 6.7-5.6 13.6-11.1 20.6-16.5 4.3-3.3 8.6-6.5 12.9-9.8 21-1.2 42-2.7 63-4.5 11-1 22-2.1 33-3.5 10.9-1.5 22-2.8 32.6-6.1-10.7 3.1-21.8 3.8-32.7 4.8z"/> </svg>